<svg width="119" height="40" xmlns="http://www.w3.org/2000/svg" xmlns:xlink="http://www.w3.org/1999/xlink"><defs><path id="a" d="M0 0h150v72H0z"/></defs><g transform="translate(-16 -16)" fill="none" fill-rule="evenodd"><mask id="b" fill="#fff"><use xlink:href="#a"/></mask><g mask="url(#b)"><path d="M124.916 36.251c-.402-6.01-5.364-10.82-11.384-11.049-6.77-.257-12.338 5.154-12.338 11.866 0 4.75 2.79 8.847 6.82 10.746l1.905-3.3c.4-.692.204-1.583-.46-2.027a6.502 6.502 0 0 1-2.89-5.812c.19-3.252 2.832-5.904 6.083-6.106a6.513 6.513 0 0 1 4.037 11.911 1.528 1.528 0 0 0-.47 2.034l1.904 3.3a11.874 11.874 0 0 0 6.793-11.563zm-12.357-20.245C101.218 16.274 92.04 25.648 92 36.991c-.03 8.186 4.613 15.285 11.409 18.799l1.899-3.29c.414-.716.198-1.642-.505-2.078-4.595-2.85-7.612-8.004-7.432-13.85.25-8.143 6.816-14.817 14.955-15.192 9.011-.415 16.448 6.768 16.448 15.688 0 5.634-2.968 10.572-7.423 13.343a1.536 1.536 0 0 0-.531 2.073l1.908 3.306c6.775-3.503 11.409-10.569 11.409-18.722 0-11.805-9.71-21.343-21.578-21.062z" fill="#00B1C2"/><path fill="#6C777C" d="M20.21 25.55h-2.622v11.878h7.033v-2.303h-4.412v-9.574M29.342 30.521c1.386 0 1.974.881 2.067 1.725h-4.098c.104-.808.693-1.725 2.03-1.725zm0-1.932c-2.545 0-4.464 1.942-4.464 4.517 0 2.67 1.894 4.535 4.605 4.535 1.405 0 2.73-.447 3.548-1.196l.03-.028-.817-1.204a.396.396 0 0 0-.553-.104c-.518.358-1.306.6-1.96.6-1.27 0-2.205-.71-2.4-1.814h6.334v-.577c0-2.829-1.738-4.73-4.323-4.73zM39.03 35.465a.312.312 0 0 0-.257-.01c-.15.06-.327.094-.498.094-.443 0-.73-.355-.73-.906v-3.786h1.732V28.8h-1.731v-2.332l-2.339.595V28.8h-1.413v2.056h1.413v4.387c0 1.568.847 2.397 2.45 2.397 1.057 0 1.619-.305 1.904-.56l.022-.02-.388-1.397a.318.318 0 0 0-.166-.2M44.278 31.983c-.88-.177-1.575-.317-1.575-.75 0-.46.532-.782 1.295-.782.776 0 1.595.266 2.19.711.094.07.213.097.326.073a.395.395 0 0 0 .262-.192l.71-1.252-.031-.026c-.972-.77-2.168-1.176-3.457-1.176-1.077 0-1.985.282-2.627.817-.592.492-.919 1.173-.919 1.916 0 2.08 1.87 2.455 3.37 2.757.94.19 1.683.339 1.683.847 0 .542-.504.853-1.383.853-.946 0-1.999-.465-2.624-.927a.398.398 0 0 0-.577.116l-.782 1.309.029.026c.908.838 2.347 1.338 3.847 1.338 2.283 0 3.758-1.087 3.758-2.769 0-2.187-2.02-2.593-3.495-2.889M75.922 36.858l-.332-1.194a.317.317 0 0 0-.422-.209 1.36 1.36 0 0 1-.497.094c-.443 0-.73-.355-.73-.906v-3.786h1.731V28.8h-1.73v-2.332l-2.34.594v1.738H70.19v2.056h1.413v4.387c0 1.568.847 2.397 2.45 2.397.922 0 1.46-.238 1.749-.437a.317.317 0 0 0 .121-.346M54.516 33.1h3.109v1.345c-.468.424-1.424.875-2.444.875-2.122 0-3.662-1.608-3.662-3.822s1.54-3.821 3.662-3.821c.995 0 1.936.467 2.582 1.28a.397.397 0 0 0 .502.104l1.842-1.008-.028-.042c-.766-1.212-2.238-2.655-4.898-2.655-3.671 0-6.336 2.583-6.336 6.142 0 3.56 2.665 6.143 6.336 6.143 1.993 0 3.734-.77 5.035-2.225l.013-.013v-4.588h-5.713V33.1M63.688 32.246c.105-.808.694-1.725 2.031-1.725 1.386 0 1.975.881 2.068 1.725h-4.099zm2.031-3.657c-2.544 0-4.464 1.942-4.464 4.517 0 2.67 1.894 4.535 4.606 4.535 1.404 0 2.73-.447 3.547-1.196l.03-.028-.816-1.204a.396.396 0 0 0-.553-.104c-.518.358-1.306.6-1.96.6-1.27 0-2.205-.71-2.4-1.814h6.333v-.577c0-2.829-1.737-4.73-4.323-4.73zM25.075 47.659c-.577.878-1.557 1.424-2.559 1.424-2.122 0-3.662-1.607-3.662-3.821 0-2.214 1.54-3.821 3.662-3.821 1 0 1.981.545 2.558 1.423a.4.4 0 0 0 .51.142l1.91-.939-.025-.043c-.741-1.325-2.202-2.904-4.953-2.904-3.672 0-6.336 2.583-6.336 6.142 0 3.56 2.664 6.142 6.336 6.142 2.726 0 4.198-1.588 4.953-2.921l.025-.044-1.911-.924a.4.4 0 0 0-.508.144M33.962 42.353c-1.598 0-2.579.849-2.938 1.23v-4.269h-2.356v11.878h2.356v-5.79c.184-.242.822-.958 1.896-.958 1.054 0 1.525.465 1.525 1.507v5.241h2.338v-6.107c0-1.762-1.002-2.732-2.821-2.732M44.193 46.01h-4.098c.104-.808.692-1.725 2.03-1.725 1.387 0 1.975.88 2.068 1.724zm-2.067-3.657c-2.545 0-4.464 1.941-4.464 4.516 0 2.67 1.893 4.535 4.605 4.535 1.404 0 2.73-.447 3.548-1.196l.03-.028-.817-1.204a.396.396 0 0 0-.553-.104c-.518.359-1.306.6-1.96.6-1.27 0-2.206-.71-2.4-1.813h6.333v-.577c0-2.829-1.737-4.73-4.322-4.73zM51.848 44.444c.638 0 1.16.212 1.551.631.071.076.168.12.273.123a.389.389 0 0 0 .286-.107l1.221-1.148-.024-.034c-.42-.576-1.416-1.545-3.378-1.556h-.027c-2.485 0-4.536 1.98-4.577 4.424-.022 1.295.422 2.47 1.25 3.312.833.848 2.012 1.315 3.32 1.315 1.972 0 2.984-.986 3.412-1.574l.024-.034-1.232-1.158a.387.387 0 0 0-.552.025c-.402.425-.937.65-1.547.65-1.334 0-2.266-1.005-2.266-2.444 0-1.45.91-2.425 2.266-2.425M61.07 46.348l3.3-3.783h-2.882l-3.164 3.716v-6.967h-2.338v11.878h2.338v-2.219l.972-1.039 2.228 3.237.014.021h2.928l-3.407-4.566a.223.223 0 0 1 .011-.278"/><path d="M66.663 46.01c.105-.808.693-1.725 2.031-1.725 1.386 0 1.974.88 2.068 1.724h-4.099zm2.031-3.657c-2.545 0-4.464 1.941-4.464 4.516 0 2.67 1.894 4.535 4.606 4.535 1.404 0 2.73-.447 3.547-1.196l.03-.028-.816-1.204a.395.395 0 0 0-.553-.104c-.518.359-1.306.6-1.961.6-1.27 0-2.205-.71-2.4-1.813h6.334v-.577c0-2.829-1.737-4.73-4.323-4.73zM80.135 45.382v2.992c-.365.545-1.152.939-1.878.939-1.272 0-2.126-.982-2.126-2.444 0-1.45.854-2.425 2.126-2.425.726 0 1.513.394 1.878.938zm0-6.068v4.257a3.28 3.28 0 0 0-2.585-1.218c-2.29 0-3.828 1.815-3.828 4.516 0 2.713 1.538 4.535 3.828 4.535 1.017 0 1.908-.422 2.585-1.222v1.01h2.356V39.314h-2.356z" fill="#6C777C"/></g></g></svg>